<svg width="32" height="30" viewBox="0 0 64 62" fill="none" xmlns="http://www.w3.org/2000/svg">
<path d="M56 20.6667C57.4145 20.6667 58.7711 21.211 59.7713 22.18C60.7714 23.1489 61.3334 24.4631 61.3334 25.8333V36.1667C61.3334 37.537 60.7714 38.8511 59.7713 39.8201C58.7711 40.789 57.4145 41.3333 56 41.3333H53.168C52.5179 46.3277 50.0087 50.9206 46.1113 54.25C42.214 57.5794 37.1963 59.4166 32 59.4167V54.25C36.2435 54.25 40.3131 52.617 43.3137 49.7102C46.3143 46.8033 48 42.8609 48 38.75V23.25C48 19.1392 46.3143 15.1967 43.3137 12.2899C40.3131 9.38304 36.2435 7.75001 32 7.75001C27.7566 7.75001 23.6869 9.38304 20.6863 12.2899C17.6857 15.1967 16 19.1392 16 23.25V41.3333H8.00002C6.58553 41.3333 5.22898 40.789 4.22878 39.8201C3.22859 38.8511 2.66669 37.537 2.66669 36.1667V25.8333C2.66669 24.4631 3.22859 23.1489 4.22878 22.18C5.22898 21.211 6.58553 20.6667 8.00002 20.6667H10.832C11.4828 15.6728 13.9922 11.0806 17.8895 7.75175C21.7869 4.42288 26.8042 2.58612 32 2.58612C37.1959 2.58612 42.2132 4.42288 46.1105 7.75175C50.0078 11.0806 52.5173 15.6728 53.168 20.6667H56ZM20.6934 40.7779L23.52 36.3966C26.0616 37.9389 29.001 38.7547 32 38.75C34.999 38.7547 37.9385 37.9389 40.48 36.3966L43.3067 40.7779C39.918 42.8346 35.9988 43.9226 32 43.9167C28.0012 43.9226 24.082 42.8346 20.6934 40.7779Z" fill="#3E85ED"/>
</svg>
