<svg width="26" height="29" viewBox="0 0 26 29" fill="none" xmlns="http://www.w3.org/2000/svg">
<path d="M23.2604 24.1751C23.2585 24.4925 23.1474 24.7962 22.9511 25.0207C22.7549 25.2452 22.4892 25.3725 22.2116 25.375H3.16342C2.88515 25.3747 2.61838 25.2481 2.42172 25.0231C2.22505 24.7982 2.11458 24.4931 2.11458 24.1751V22.9583H21.1458V8.82083L12.6875 17.5208L2.11458 6.64583V4.83333C2.11458 4.51286 2.22598 4.20552 2.42426 3.97891C2.62254 3.75231 2.89146 3.625 3.17187 3.625H22.2031C22.4835 3.625 22.7525 3.75231 22.9507 3.97891C23.149 4.20552 23.2604 4.51286 23.2604 4.83333V24.1751ZM4.68803 6.04167L12.6875 14.2704L20.687 6.04167H4.68803ZM0 18.125H8.45833V20.5417H0L0 18.125ZM0 12.0833H5.28646V14.5H0V12.0833Z" fill="#D9D9D9"/>
</svg>
