<svg width="26" height="29" viewBox="0 0 26 29" fill="none" xmlns="http://www.w3.org/2000/svg">
<path d="M21.2138 19.1633C22.3632 17.9286 23.1315 16.3785 23.4238 14.7046C23.7161 13.0308 23.5196 11.3065 22.8585 9.74501C22.1975 8.18349 21.1008 6.85314 19.7042 5.91839C18.3075 4.98365 16.6721 4.48549 15 4.48549C13.3279 4.48549 11.6925 4.98365 10.2958 5.91839C8.89917 6.85314 7.80254 8.18349 7.14147 9.74501C6.48041 11.3065 6.28389 13.0308 6.5762 14.7046C6.86851 16.3785 7.63684 17.9286 8.78623 19.1633C9.44582 18.0932 10.3621 17.2111 11.449 16.5998C12.536 15.9886 13.7579 15.6683 15 15.6689C16.2421 15.6683 17.464 15.9886 18.551 16.5998C19.6379 17.2111 20.5542 18.0932 21.2138 19.1633ZM15 29L7.22178 21.0918C5.68342 19.5278 4.63578 17.535 4.21136 15.3656C3.78693 13.1961 4.00478 10.9474 4.83734 8.90389C5.66991 6.86033 7.07981 5.11368 8.88874 3.88479C10.6977 2.65591 12.8244 2 15 2C17.1756 2 19.3023 2.65591 21.1113 3.88479C22.9202 5.11368 24.3301 6.86033 25.1627 8.90389C25.9952 10.9474 26.2131 13.1961 25.7886 15.3656C25.3642 17.535 24.3166 19.5278 22.7782 21.0918L15 29ZM15 14.4263C14.5185 14.4263 14.0417 14.3299 13.5968 14.1425C13.152 13.9552 12.7478 13.6806 12.4073 13.3344C12.0668 12.9883 11.7967 12.5773 11.6124 12.125C11.4282 11.6727 11.3333 11.1879 11.3333 10.6984C11.3333 10.2088 8.60196 19.6155 8.78623 19.1633C8.97049 18.711 12.0668 8.40852 12.4073 8.06235C12.7478 7.71618 13.152 7.44158 13.5968 7.25424C14.0417 7.06689 14.5185 6.97047 15 6.97047C15.9725 6.97047 16.9051 7.36323 17.5927 8.06235C18.2804 8.76147 18.6667 9.70968 18.6667 10.6984C18.6667 11.6871 18.2804 12.6353 17.5927 13.3344C16.9051 14.0335 15.9725 14.4263 15 14.4263Z" fill="white"/>
</svg>
