<svg width="29" height="29" viewBox="0 0 29 29" style="none" xmlns="http://www.w3.org/2000/svg">
<path d="M13.7509 2.43961C12.8605 3.26927 12.1463 4.26978 11.651 5.38144C11.1557 6.4931 10.8893 7.69313 10.8679 8.90996C10.8464 10.1268 11.0702 11.3355 11.526 12.4639C11.9818 13.5924 12.6602 14.6174 13.5208 15.478C14.3814 16.3385 15.4064 17.017 16.5349 17.4728C17.6633 17.9286 18.872 18.1524 20.0888 18.1309C21.3057 18.1095 22.5057 17.8431 23.6174 17.3478C24.729 16.8525 25.7295 16.1383 26.5592 15.2479C26.1749 21.5736 20.9235 26.5833 14.5012 26.5833C7.8264 26.5833 2.41669 21.1736 2.41669 14.5C2.41669 8.07769 7.42644 2.82627 13.7509 2.43961Z" fill="#fff"/>
</svg>
