<svg width="29" height="29" viewBox="0 0 29 29" fill="none" xmlns="http://www.w3.org/2000/svg">
<path d="M5.4375 12.6875C4.44062 12.6875 3.625 13.5031 3.625 14.5C3.625 15.4969 4.44062 16.3125 5.4375 16.3125C6.43437 16.3125 7.25 15.4969 7.25 14.5C7.25 13.5031 6.43437 12.6875 5.4375 12.6875ZM23.5625 12.6875C22.5656 12.6875 21.75 13.5031 21.75 14.5C21.75 15.4969 22.5656 16.3125 23.5625 16.3125C24.5594 16.3125 25.375 15.4969 25.375 14.5C25.375 13.5031 24.5594 12.6875 23.5625 12.6875ZM14.5 12.6875C13.5031 12.6875 12.6875 13.5031 12.6875 14.5C12.6875 15.4969 13.5031 16.3125 14.5 16.3125C15.4969 16.3125 16.3125 15.4969 16.3125 14.5C16.3125 13.5031 15.4969 12.6875 14.5 12.6875Z" fill="white"/>
</svg>
