<svg width="35" height="29" viewBox="0 0 35 29" fill="none" xmlns="http://www.w3.org/2000/svg">
<path d="M5.79999 26.5833C5.79999 24.0196 7.02213 21.5608 9.19755 19.748C11.373 17.9351 14.3235 16.9167 17.4 16.9167C20.4765 16.9167 23.427 17.9351 25.6024 19.748C27.7779 21.5608 29 24.0196 29 26.5833H26.1C26.1 24.6605 25.1834 22.8165 23.5518 21.4568C21.9203 20.0972 19.7074 19.3333 17.4 19.3333C15.0926 19.3333 12.8797 20.0972 11.2482 21.4568C9.61659 22.8165 8.69999 24.6605 8.69999 26.5833H5.79999ZM17.4 15.7083C12.5932 15.7083 8.69999 12.464 8.69999 8.45834C8.69999 4.45272 12.5932 1.20834 17.4 1.20834C22.2067 1.20834 26.1 4.45272 26.1 8.45834C26.1 12.464 22.2067 15.7083 17.4 15.7083ZM17.4 13.2917C20.6045 13.2917 23.2 11.1288 23.2 8.45834C23.2 5.78793 20.6045 3.62501 17.4 3.62501C14.1955 3.62501 11.6 5.78793 11.6 8.45834C11.6 11.1288 14.1955 13.2917 17.4 13.2917Z" fill="white"/>
</svg>
